<svg viewBox="0 0 1200 800" xmlns="http://www.w3.org/2000/svg">
  <!-- Background -->
  <rect width="1200" height="800" fill="#0a0a0a"/>
  
  <!-- Title -->
  <text x="600" y="40" text-anchor="middle" fill="#ffffff" font-size="24" font-weight="bold">PolyChain Layer 2 sur ICP - Architecture</text>
  
  <!-- ICP Layer (Bottom) -->
  <rect x="50" y="650" width="1100" height="120" fill="#8B5CF6" rx="10" opacity="0.8"/>
  <text x="600" y="680" text-anchor="middle" fill="white" font-size="16" font-weight="bold">ICP LAYER 1 - Settlement et Security</text>
  <text x="150" y="705" fill="white" font-size="12">• Consensus Final</text>
  <text x="350" y="705" fill="white" font-size="12">• Bitcoin Integration</text>
  <text x="550" y="705" fill="white" font-size="12">• Stable Storage</text>
  <text x="750" y="705" fill="white" font-size="12">• HTTPS Outcalls</text>
  <text x="950" y="705" fill="white" font-size="12">• Internet Identity</text>
  <text x="150" y="725" fill="white" font-size="12">• Replication</text>
  <text x="350" y="725" fill="white" font-size="12">• Subnet Security</text>
  <text x="550" y="725" fill="white" font-size="12">• Persistence</text>
  <text x="750" y="725" fill="white" font-size="12">• Oracles</text>
  <text x="950" y="725" fill="white" font-size="12">• Authentication</text>

  <!-- PolyChain L2 Layer -->
  <rect x="50" y="100" width="1100" height="500" fill="#1E293B" rx="10" stroke="#3B82F6" stroke-width="3"/>
  <text x="600" y="130" text-anchor="middle" fill="#3B82F6" font-size="18" font-weight="bold">POLYCHAIN LAYER 2 - Execution et Innovation</text>

  <!-- Main Canister -->
  <rect x="80" y="160" width="250" height="180" fill="#059669" rx="8"/>
  <text x="205" y="185" text-anchor="middle" fill="white" font-size="14" font-weight="bold">MAIN CANISTER</text>
  <text x="205" y="205" text-anchor="middle" fill="white" font-size="12">État Blockchain</text>
  <line x1="90" y1="215" x2="320" y2="215" stroke="white" stroke-width="1"/>
  <text x="90" y="235" fill="white" font-size="11">• Vec&lt;PolyBlock&gt;</text>
  <text x="90" y="250" fill="white" font-size="11">• StableBTreeMap balances</text>
  <text x="90" y="265" fill="white" font-size="11">• Transaction Pool</text>
  <text x="90" y="280" fill="white" font-size="11">• Block History</text>
  <text x="90" y="295" fill="white" font-size="11">• API Endpoints</text>
  <text x="90" y="310" fill="white" font-size="11">• State Management</text>
  <text x="90" y="325" fill="white" font-size="11">• Query/Update calls</text>

  <!-- Consensus Canister -->
  <rect x="370" y="160" width="250" height="180" fill="#DC2626" rx="8"/>
  <text x="495" y="185" text-anchor="middle" fill="white" font-size="14" font-weight="bold">CONSENSUS CANISTER</text>
  <text x="495" y="205" text-anchor="middle" fill="white" font-size="12">Algorithmes Consensus</text>
  <line x1="380" y1="215" x2="610" y2="215" stroke="white" stroke-width="1"/>
  <text x="380" y="235" fill="white" font-size="11">• Proof of Work Logic</text>
  <text x="380" y="250" fill="white" font-size="11">• Proof of Stake (Algorand)</text>
  <text x="380" y="265" fill="white" font-size="11">• VRF Functions</text>
  <text x="380" y="280" fill="white" font-size="11">• Validator Selection</text>
  <text x="380" y="295" fill="white" font-size="11">• Byzantine Agreement</text>
  <text x="380" y="310" fill="white" font-size="11">• Difficulty Adjustment</text>
  <text x="380" y="325" fill="white" font-size="11">• Block Validation</text>

  <!-- Crypto Canister -->
  <rect x="660" y="160" width="250" height="180" fill="#7C2D12" rx="8"/>
  <text x="785" y="185" text-anchor="middle" fill="white" font-size="14" font-weight="bold">CRYPTO CANISTER</text>
  <text x="785" y="205" text-anchor="middle" fill="white" font-size="12">Multi-Signature Support</text>
  <line x1="670" y1="215" x2="900" y2="215" stroke="white" stroke-width="1"/>
  <text x="670" y="235" fill="white" font-size="11">• ECDSA (secp256k1)</text>
  <text x="670" y="250" fill="white" font-size="11">• Falcon (Post-Quantum)</text>
  <text x="670" y="265" fill="white" font-size="11">• ML-DSA (Dilithium)</text>
  <text x="670" y="280" fill="white" font-size="11">• Schnorr Signatures</text>
  <text x="670" y="295" fill="white" font-size="11">• Key Generation</text>
  <text x="670" y="310" fill="white" font-size="11">• Batch Verification</text>
  <text x="670" y="325" fill="white" font-size="11">• VRF Implementation</text>

  <!-- Bridge Canister -->
  <rect x="80" y="370" width="250" height="180" fill="#1E40AF" rx="8"/>
  <text x="205" y="395" text-anchor="middle" fill="white" font-size="14" font-weight="bold">BRIDGE CANISTER</text>
  <text x="205" y="415" text-anchor="middle" fill="white" font-size="12">Intégrations Externes</text>
  <line x1="90" y1="425" x2="320" y2="425" stroke="white" stroke-width="1"/>
  <text x="90" y="445" fill="white" font-size="11">• Bitcoin Integration</text>
  <text x="90" y="460" fill="white" font-size="11">• Cross-chain Bridges</text>
  <text x="90" y="475" fill="white" font-size="11">• Price Oracle Feeds</text>
  <text x="90" y="490" fill="white" font-size="11">• HTTPS Outcalls</text>
  <text x="90" y="505" fill="white" font-size="11">• External APIs</text>
  <text x="90" y="520" fill="white" font-size="11">• Asset Tokenization</text>
  <text x="90" y="535" fill="white" font-size="11">• RWA Connections</text>

  <!-- Frontend Canister -->
  <rect x="370" y="370" width="250" height="180" fill="#059669" rx="8"/>
  <text x="495" y="395" text-anchor="middle" fill="white" font-size="14" font-weight="bold">FRONTEND CANISTER</text>
  <text x="495" y="415" text-anchor="middle" fill="white" font-size="12">Interface Utilisateur</text>
  <line x1="380" y1="425" x2="610" y2="425" stroke="white" stroke-width="1"/>
  <text x="380" y="445" fill="white" font-size="11">• Web UI (React/Vue)</text>
  <text x="380" y="460" fill="white" font-size="11">• Wallet Integration</text>
  <text x="380" y="475" fill="white" font-size="11">• Transaction Explorer</text>
  <text x="380" y="490" fill="white" font-size="11">• Analytics Dashboard</text>
  <text x="380" y="505" fill="white" font-size="11">• Internet Identity</text>
  <text x="380" y="520" fill="white" font-size="11">• Mobile App</text>
  <text x="380" y="535" fill="white" font-size="11">• Developer Tools</text>

  <!-- Governance Canister -->
  <rect x="660" y="370" width="250" height="180" fill="#7C2D12" rx="8"/>
  <text x="785" y="395" text-anchor="middle" fill="white" font-size="14" font-weight="bold">GOVERNANCE CANISTER</text>
  <text x="785" y="415" text-anchor="middle" fill="white" font-size="12">DAO et Gouvernance</text>
  <line x1="670" y1="425" x2="900" y2="425" stroke="white" stroke-width="1"/>
  <text x="670" y="445" fill="white" font-size="11">• SNS Integration</text>
  <text x="670" y="460" fill="white" font-size="11">• Proposal System</text>
  <text x="670" y="475" fill="white" font-size="11">• Voting Mechanisms</text>
  <text x="670" y="490" fill="white" font-size="11">• Treasury Management</text>
  <text x="670" y="505" fill="white" font-size="11">• Parameter Updates</text>
  <text x="670" y="520" fill="white" font-size="11">• Community Funds</text>
  <text x="670" y="535" fill="white" font-size="11">• Upgrade Proposals</text>

  <!-- External Integrations -->
  <rect x="950" y="160" width="200" height="390" fill="#374151" rx="8" stroke="#F59E0B" stroke-width="2"/>
  <text x="1050" y="185" text-anchor="middle" fill="#F59E0B" font-size="14" font-weight="bold">INTÉGRATIONS</text>
  <text x="1050" y="205" text-anchor="middle" fill="#F59E0B" font-size="12">Externes</text>
  <line x1="960" y1="215" x2="1140" y2="215" stroke="#F59E0B" stroke-width="1"/>
  
  <!-- Bitcoin -->
  <circle cx="970" cy="240" r="8" fill="#F7931A"/>
  <text x="985" y="245" fill="white" font-size="11">Bitcoin Network</text>
  
  <!-- Ethereum -->
  <circle cx="970" cy="265" r="8" fill="#627EEA"/>
  <text x="985" y="270" fill="white" font-size="11">Ethereum Bridge</text>
  
  <!-- Oracles -->
  <circle cx="970" cy="290" r="8" fill="#2563EB"/>
  <text x="985" y="295" fill="white" font-size="11">Price Oracles</text>
  
  <!-- DeFi -->
  <circle cx="970" cy="315" r="8" fill="#10B981"/>
  <text x="985" y="320" fill="white" font-size="11">DeFi Protocols</text>
  
  <!-- RWA -->
  <circle cx="970" cy="340" r="8" fill="#8B5CF6"/>
  <text x="985" y="345" fill="white" font-size="11">Real World Assets</text>
  
  <!-- AI Services -->
  <circle cx="970" cy="365" r="8" fill="#EF4444"/>
  <text x="985" y="370" fill="white" font-size="11">AI Services</text>
  
  <!-- Web2 APIs -->
  <circle cx="970" cy="390" r="8" fill="#F59E0B"/>
  <text x="985" y="395" fill="white" font-size="11">Web2 APIs</text>

  <!-- Arrows showing communication -->
  <!-- Main to Consensus -->
  <line x1="330" y1="250" x2="370" y2="250" stroke="#3B82F6" stroke-width="3" marker-end="url(#arrowhead)"/>
  <!-- Consensus to Crypto -->
  <line x1="620" y1="250" x2="660" y2="250" stroke="#3B82F6" stroke-width="3" marker-end="url(#arrowhead)"/>
  <!-- Main to Bridge -->
  <line x1="205" y1="340" x2="205" y2="370" stroke="#3B82F6" stroke-width="3" marker-end="url(#arrowhead)"/>
  <!-- Bridge to Frontend -->
  <line x1="330" y1="460" x2="370" y2="460" stroke="#3B82F6" stroke-width="3" marker-end="url(#arrowhead)"/>
  <!-- Frontend to Governance -->
  <line x1="620" y1="460" x2="660" y2="460" stroke="#3B82F6" stroke-width="3" marker-end="url(#arrowhead)"/>
  <!-- To external -->
  <line x1="910" y1="275" x2="950" y2="275" stroke="#F59E0B" stroke-width="3" marker-end="url(#arrowhead)"/>

  <!-- ICP Connection -->
  <line x1="600" y1="550" x2="600" y2="650" stroke="#8B5CF6" stroke-width="4" marker-end="url(#arrowhead)"/>
  <text x="610" y="600" fill="#8B5CF6" font-size="12" font-weight="bold">Settlement Layer</text>

  <!-- Arrow marker definition -->
  <defs>
    <marker id="arrowhead" markerWidth="10" markerHeight="7" refX="9" refY="3.5" orient="auto">
      <polygon points="0 0, 10 3.5, 0 7" fill="#3B82F6"/>
    </marker>
  </defs>

  <!-- Flow labels -->
  <text x="350" y="235" fill="#3B82F6" font-size="10">Txs</text>
  <text x="640" y="235" fill="#3B82F6" font-size="10">Validation</text>
  <text x="215" y="355" fill="#3B82F6" font-size="10">Bridge</text>
  <text x="350" y="445" fill="#3B82F6" font-size="10">UI</text>
  <text x="640" y="445" fill="#3B82F6" font-size="10">Gov</text>
  <text x="920" y="260" fill="#F59E0B" font-size="10">External</text>

  <!-- Performance indicators -->
  <rect x="50" y="60" width="300" height="30" fill="#059669" rx="5" opacity="0.8"/>
  <text x="200" y="80" text-anchor="middle" fill="white" font-size="12" font-weight="bold">⚡ Performance: Web Speed + Blockchain Security</text>
  
  <rect x="400" y="60" width="300" height="30" fill="#DC2626" rx="5" opacity="0.8"/>
  <text x="550" y="80" text-anchor="middle" fill="white" font-size="12" font-weight="bold">🔒 Innovation: Post-Quantum + Multi-Consensus</text>
  
  <rect x="750" y="60" width="300" height="30" fill="#7C2D12" rx="5" opacity="0.8"/>
  <text x="900" y="80" text-anchor="middle" fill="white" font-size="12" font-weight="bold">🌐 Integration: Bitcoin Native + Cross-Chain</text>
</svg>